<?xml version="1.0" encoding="UTF-8" standalone="no"?>
<!DOCTYPE svg PUBLIC "-//W3C//DTD SVG 1.1//EN"
 "http://www.w3.org/Graphics/SVG/1.1/DTD/svg11.dtd">
<!-- Generated by graphviz version 2.38.0 (20140413.2041)
 -->
<!-- Title: G Pages: 1 -->
<svg width="635pt" height="814pt"
 viewBox="0.00 0.00 634.77 813.60" xmlns="http://www.w3.org/2000/svg" xmlns:xlink="http://www.w3.org/1999/xlink">
<g id="graph0" class="graph" transform="scale(1 1) rotate(0) translate(4 809.602)">
<title>G</title>
<polygon fill="white" stroke="none" points="-4,4 -4,-809.602 630.773,-809.602 630.773,4 -4,4"/>
<!-- n1 -->
<g id="node1" class="node"><title>n1</title>
<g id="a_node1"><a xlink:title="[[string &quot;h4 = nn.CAddTable()({h3,z1})&quot;]]:1_">
<ellipse fill="none" stroke="black" cx="213.705" cy="-122.267" rx="125.792" ry="35.2113"/>
<text text-anchor="middle" x="213.705" y="-132.067" font-family="Times,serif" font-size="14.00">Node1</text>
<text text-anchor="start" x="132.86" y="-118.067" font-family="Times,serif" font-size="14.00">module = nn.CAddTable</text>
<text text-anchor="middle" x="213.705" y="-104.067" font-family="Times,serif" font-size="14.00">mapindex = {Node3,Node4}</text>
</a>
</g>
</g>
<!-- n2 -->
<g id="node2" class="node"><title>n2</title>
<g id="a_node2"><a xlink:title="[[C]]:&#45;1_">
<ellipse fill="none" stroke="black" cx="213.705" cy="-25.4558" rx="51.8999" ry="25.4118"/>
<text text-anchor="middle" x="213.705" y="-28.2558" font-family="Times,serif" font-size="14.00">Node2</text>
<text text-anchor="middle" x="213.705" y="-14.2558" font-family="Times,serif" font-size="14.00">input = {}</text>
</a>
</g>
</g>
<!-- n1&#45;&gt;n2 -->
<g id="edge1" class="edge"><title>n1&#45;&gt;n2</title>
<path fill="none" stroke="black" d="M213.705,-86.7698C213.705,-78.4307 213.705,-69.5146 213.705,-61.1658"/>
<polygon fill="black" stroke="black" points="217.205,-60.9799 213.705,-50.98 210.205,-60.98 217.205,-60.9799"/>
</g>
<!-- n3 -->
<g id="node3" class="node"><title>n3</title>
<g id="a_node3"><a xlink:title="[[string &quot;h3 = nn.CMulTable()({h1,h2})&quot;]]:1_">
<ellipse fill="none" stroke="black" cx="332.705" cy="-228.978" rx="125.792" ry="35.2113"/>
<text text-anchor="middle" x="332.705" y="-238.778" font-family="Times,serif" font-size="14.00">Node3</text>
<text text-anchor="start" x="251.86" y="-224.778" font-family="Times,serif" font-size="14.00">module = nn.CMulTable</text>
<text text-anchor="middle" x="332.705" y="-210.778" font-family="Times,serif" font-size="14.00">mapindex = {Node5,Node6}</text>
</a>
</g>
</g>
<!-- n3&#45;&gt;n1 -->
<g id="edge2" class="edge"><title>n3&#45;&gt;n1</title>
<path fill="none" stroke="black" d="M295.38,-195.134C283.861,-184.999 271.049,-173.725 259.052,-163.169"/>
<polygon fill="black" stroke="black" points="261.127,-160.333 251.308,-156.354 256.503,-165.588 261.127,-160.333"/>
</g>
<!-- n4 -->
<g id="node4" class="node"><title>n4</title>
<g id="a_node4"><a xlink:title="[[string &quot;z1 = nn.Identity()()&quot;]]:1_">
<ellipse fill="none" stroke="black" cx="94.7054" cy="-228.978" rx="94.9112" ry="25.4118"/>
<text text-anchor="middle" x="94.7054" y="-231.778" font-family="Times,serif" font-size="14.00">Node4</text>
<text text-anchor="middle" x="94.7054" y="-217.778" font-family="Times,serif" font-size="14.00">module = nn.Identity</text>
</a>
</g>
</g>
<!-- n4&#45;&gt;n1 -->
<g id="edge3" class="edge"><title>n4&#45;&gt;n1</title>
<path fill="none" stroke="black" d="M121.411,-204.479C135.309,-192.25 152.678,-176.966 168.588,-162.967"/>
<polygon fill="black" stroke="black" points="171.064,-165.45 176.26,-156.216 166.44,-160.195 171.064,-165.45"/>
</g>
<!-- n5 -->
<g id="node5" class="node"><title>n5</title>
<g id="a_node5"><a xlink:title="[[string &quot;h1 = nn.Square()(nn.Tanh()(x1))&quot;]]:1_">
<ellipse fill="none" stroke="black" cx="283.705" cy="-325.789" rx="91.3079" ry="25.4118"/>
<text text-anchor="middle" x="283.705" y="-328.589" font-family="Times,serif" font-size="14.00">Node5</text>
<text text-anchor="middle" x="283.705" y="-314.589" font-family="Times,serif" font-size="14.00">module = nn.Square</text>
</a>
</g>
</g>
<!-- n5&#45;&gt;n3 -->
<g id="edge4" class="edge"><title>n5&#45;&gt;n3</title>
<path fill="none" stroke="black" d="M296.324,-300.373C300.577,-292.143 305.461,-282.693 310.241,-273.444"/>
<polygon fill="black" stroke="black" points="313.477,-274.806 314.959,-264.316 307.258,-271.592 313.477,-274.806"/>
</g>
<!-- n6 -->
<g id="node6" class="node"><title>n6</title>
<g id="a_node6"><a xlink:title="[[string &quot;h2 = nn.Square()(nn.Sigmoid()(y1))&quot;]]:1_">
<ellipse fill="none" stroke="black" cx="488.705" cy="-325.789" rx="91.3079" ry="25.4118"/>
<text text-anchor="middle" x="488.705" y="-328.589" font-family="Times,serif" font-size="14.00">Node6</text>
<text text-anchor="middle" x="488.705" y="-314.589" font-family="Times,serif" font-size="14.00">module = nn.Square</text>
</a>
</g>
</g>
<!-- n6&#45;&gt;n3 -->
<g id="edge5" class="edge"><title>n6&#45;&gt;n3</title>
<path fill="none" stroke="black" d="M451.736,-302.32C434.155,-291.635 412.686,-278.587 392.847,-266.529"/>
<polygon fill="black" stroke="black" points="394.527,-263.455 384.164,-261.252 390.892,-269.437 394.527,-263.455"/>
</g>
<!-- n7 -->
<g id="node7" class="node"><title>n7</title>
<g id="a_node7"><a xlink:title="[[C]]:&#45;1_&#45;3">
<ellipse fill="none" stroke="black" cx="94.7054" cy="-596.423" rx="71.1496" ry="35.2113"/>
<text text-anchor="middle" x="94.7054" y="-606.223" font-family="Times,serif" font-size="14.00">Node7</text>
<text text-anchor="start" x="52.2713" y="-592.223" font-family="Times,serif" font-size="14.00">input = {}</text>
<text text-anchor="middle" x="94.7054" y="-578.223" font-family="Times,serif" font-size="14.00">selectindex = 3</text>
</a>
</g>
</g>
<!-- n7&#45;&gt;n4 -->
<g id="edge6" class="edge"><title>n7&#45;&gt;n4</title>
<path fill="none" stroke="black" d="M94.7054,-561.043C94.7054,-491.413 94.7054,-334.424 94.7054,-264.595"/>
<polygon fill="black" stroke="black" points="98.2055,-264.554 94.7054,-254.554 91.2055,-264.554 98.2055,-264.554"/>
</g>
<!-- n8 -->
<g id="node8" class="node"><title>n8</title>
<g id="a_node8"><a xlink:title="[[string &quot;h1 = nn.Square()(nn.Tanh()(x1))&quot;]]:1_">
<ellipse fill="none" stroke="black" cx="255.705" cy="-412.701" rx="83.6272" ry="25.4118"/>
<text text-anchor="middle" x="255.705" y="-415.501" font-family="Times,serif" font-size="14.00">Node8</text>
<text text-anchor="middle" x="255.705" y="-401.501" font-family="Times,serif" font-size="14.00">module = nn.Tanh</text>
</a>
</g>
</g>
<!-- n8&#45;&gt;n5 -->
<g id="edge7" class="edge"><title>n8&#45;&gt;n5</title>
<path fill="none" stroke="black" d="M263.804,-387.141C266.503,-378.956 269.56,-369.684 272.454,-360.908"/>
<polygon fill="black" stroke="black" points="275.817,-361.887 275.625,-351.294 269.169,-359.695 275.817,-361.887"/>
</g>
<!-- n9 -->
<g id="node9" class="node"><title>n9</title>
<g id="a_node9"><a xlink:title="[[string &quot;h2 = nn.Square()(nn.Sigmoid()(y1))&quot;]]:1_">
<ellipse fill="none" stroke="black" cx="502.705" cy="-412.701" rx="97.4405" ry="25.4118"/>
<text text-anchor="middle" x="502.705" y="-415.501" font-family="Times,serif" font-size="14.00">Node9</text>
<text text-anchor="middle" x="502.705" y="-401.501" font-family="Times,serif" font-size="14.00">module = nn.Sigmoid</text>
</a>
</g>
</g>
<!-- n9&#45;&gt;n6 -->
<g id="edge8" class="edge"><title>n9&#45;&gt;n6</title>
<path fill="none" stroke="black" d="M498.656,-387.141C497.321,-379.044 495.811,-369.884 494.378,-361.191"/>
<polygon fill="black" stroke="black" points="497.826,-360.591 492.746,-351.294 490.919,-361.73 497.826,-360.591"/>
</g>
<!-- n10 -->
<g id="node10" class="node"><title>n10</title>
<g id="a_node10"><a xlink:title="[[C]]:&#45;1_ split at [...heleceru/torch/install/share/lua/5.1/nngraph/gmodule.lua]:72&#45;mnode">
<ellipse fill="none" stroke="black" cx="255.705" cy="-693.235" rx="81.6087" ry="25.4118"/>
<text text-anchor="middle" x="255.705" y="-696.035" font-family="Times,serif" font-size="14.00">Node10</text>
<text text-anchor="middle" x="255.705" y="-682.035" font-family="Times,serif" font-size="14.00">nSplitOutputs = 3</text>
</a>
</g>
</g>
<!-- n10&#45;&gt;n7 -->
<g id="edge9" class="edge"><title>n10&#45;&gt;n7</title>
<path fill="none" stroke="black" d="M218.769,-670.483C197.942,-658.218 171.547,-642.675 148.463,-629.081"/>
<polygon fill="black" stroke="black" points="150.189,-626.035 139.796,-623.977 146.637,-632.067 150.189,-626.035"/>
</g>
<!-- n14 -->
<g id="node14" class="node"><title>n14</title>
<g id="a_node14"><a xlink:title="[[C]]:&#45;1_&#45;1">
<ellipse fill="none" stroke="black" cx="255.705" cy="-596.423" rx="71.1496" ry="35.2113"/>
<text text-anchor="middle" x="255.705" y="-606.223" font-family="Times,serif" font-size="14.00">Node14</text>
<text text-anchor="start" x="213.271" y="-592.223" font-family="Times,serif" font-size="14.00">input = {}</text>
<text text-anchor="middle" x="255.705" y="-578.223" font-family="Times,serif" font-size="14.00">selectindex = 1</text>
</a>
</g>
</g>
<!-- n10&#45;&gt;n14 -->
<g id="edge15" class="edge"><title>n10&#45;&gt;n14</title>
<path fill="none" stroke="black" d="M255.705,-667.324C255.705,-659.516 255.705,-650.648 255.705,-641.913"/>
<polygon fill="black" stroke="black" points="259.205,-641.791 255.705,-631.791 252.205,-641.791 259.205,-641.791"/>
</g>
<!-- n15 -->
<g id="node15" class="node"><title>n15</title>
<g id="a_node15"><a xlink:title="[[C]]:&#45;1_&#45;2">
<ellipse fill="none" stroke="black" cx="458.705" cy="-596.423" rx="71.1496" ry="35.2113"/>
<text text-anchor="middle" x="458.705" y="-606.223" font-family="Times,serif" font-size="14.00">Node15</text>
<text text-anchor="start" x="416.271" y="-592.223" font-family="Times,serif" font-size="14.00">input = {}</text>
<text text-anchor="middle" x="458.705" y="-578.223" font-family="Times,serif" font-size="14.00">selectindex = 2</text>
</a>
</g>
</g>
<!-- n10&#45;&gt;n15 -->
<g id="edge16" class="edge"><title>n10&#45;&gt;n15</title>
<path fill="none" stroke="black" d="M299.753,-671.662C328.621,-658.179 366.735,-640.378 398.403,-625.588"/>
<polygon fill="black" stroke="black" points="399.999,-628.705 407.578,-621.302 397.037,-622.363 399.999,-628.705"/>
</g>
<!-- n11 -->
<g id="node11" class="node"><title>n11</title>
<g id="a_node11"><a xlink:title="[[string &quot;x1 = nn.Linear(4, 2)()&quot;]]:1_">
<ellipse fill="none" stroke="black" cx="248.705" cy="-499.612" rx="120.136" ry="25.4118"/>
<text text-anchor="middle" x="248.705" y="-502.412" font-family="Times,serif" font-size="14.00">Node11</text>
<text text-anchor="middle" x="248.705" y="-488.412" font-family="Times,serif" font-size="14.00">module = nn.Linear(4 &#45;&gt; 2)</text>
</a>
</g>
</g>
<!-- n11&#45;&gt;n8 -->
<g id="edge10" class="edge"><title>n11&#45;&gt;n8</title>
<path fill="none" stroke="black" d="M250.73,-474.052C251.39,-466.043 252.136,-456.994 252.846,-448.387"/>
<polygon fill="black" stroke="black" points="256.352,-448.459 253.685,-438.205 249.375,-447.884 256.352,-448.459"/>
</g>
<!-- n12 -->
<g id="node12" class="node"><title>n12</title>
<g id="a_node12"><a xlink:title="[[string &quot;y1 = nn.Linear(5,2)()&quot;]]:1_">
<ellipse fill="none" stroke="black" cx="506.705" cy="-499.612" rx="120.136" ry="25.4118"/>
<text text-anchor="middle" x="506.705" y="-502.412" font-family="Times,serif" font-size="14.00">Node12</text>
<text text-anchor="middle" x="506.705" y="-488.412" font-family="Times,serif" font-size="14.00">module = nn.Linear(5 &#45;&gt; 2)</text>
</a>
</g>
</g>
<!-- n12&#45;&gt;n9 -->
<g id="edge11" class="edge"><title>n12&#45;&gt;n9</title>
<path fill="none" stroke="black" d="M505.548,-474.052C505.171,-466.043 504.745,-456.994 504.339,-448.387"/>
<polygon fill="black" stroke="black" points="507.826,-448.03 503.86,-438.205 500.834,-448.359 507.826,-448.03"/>
</g>
<!-- n13 -->
<g id="node13" class="node"><title>n13</title>
<g id="a_node13"><a xlink:title="[[C]]:&#45;1_">
<ellipse fill="none" stroke="black" cx="255.705" cy="-780.146" rx="51.8999" ry="25.4118"/>
<text text-anchor="middle" x="255.705" y="-782.946" font-family="Times,serif" font-size="14.00">Node13</text>
<text text-anchor="middle" x="255.705" y="-768.946" font-family="Times,serif" font-size="14.00">input = {}</text>
</a>
</g>
</g>
<!-- n13&#45;&gt;n10 -->
<g id="edge12" class="edge"><title>n13&#45;&gt;n10</title>
<path fill="none" stroke="black" d="M255.705,-754.586C255.705,-746.577 255.705,-737.528 255.705,-728.921"/>
<polygon fill="black" stroke="black" points="259.205,-728.739 255.705,-718.739 252.205,-728.739 259.205,-728.739"/>
</g>
<!-- n14&#45;&gt;n11 -->
<g id="edge13" class="edge"><title>n14&#45;&gt;n11</title>
<path fill="none" stroke="black" d="M253.158,-560.926C252.543,-552.587 251.884,-543.671 251.268,-535.322"/>
<polygon fill="black" stroke="black" points="254.743,-534.851 250.516,-525.136 247.762,-535.367 254.743,-534.851"/>
</g>
<!-- n15&#45;&gt;n12 -->
<g id="edge14" class="edge"><title>n15&#45;&gt;n12</title>
<path fill="none" stroke="black" d="M475.628,-561.997C480.196,-552.975 485.139,-543.211 489.71,-534.182"/>
<polygon fill="black" stroke="black" points="492.914,-535.602 494.308,-525.1 486.669,-532.441 492.914,-535.602"/>
</g>
</g>
</svg>
