<?xml version="1.0" encoding="UTF-8" standalone="no"?>
<!DOCTYPE svg PUBLIC "-//W3C//DTD SVG 1.1//EN"
 "http://www.w3.org/Graphics/SVG/1.1/DTD/svg11.dtd">
<!-- Generated by graphviz version 2.38.0 (20140413.2041)
 -->
<!-- Title: G Pages: 1 -->
<svg width="821pt" height="2236pt"
 viewBox="0.00 0.00 820.71 2236.07" xmlns="http://www.w3.org/2000/svg" xmlns:xlink="http://www.w3.org/1999/xlink">
<g id="graph0" class="graph" transform="scale(1 1) rotate(0) translate(4 2232.07)">
<title>G</title>
<polygon fill="white" stroke="none" points="-4,4 -4,-2232.07 816.705,-2232.07 816.705,4 -4,4"/>
<!-- n1 -->
<g id="node1" class="node"><title>n1</title>
<g id="a_node1"><a xlink:title="[[C]]:&#45;1_">
<ellipse fill="none" stroke="black" cx="595" cy="-142.066" rx="151.806" ry="35.2113"/>
<text text-anchor="middle" x="595" y="-151.866" font-family="Times,serif" font-size="14.00">Node1</text>
<text text-anchor="start" x="495.588" y="-137.866" font-family="Times,serif" font-size="14.00">module = nn.ModuleFromCriterion</text>
<text text-anchor="middle" x="595" y="-123.866" font-family="Times,serif" font-size="14.00">mapindex = {Node4,Node5}</text>
</a>
</g>
</g>
<!-- n2 -->
<g id="node2" class="node"><title>n2</title>
<g id="a_node2"><a xlink:title="[[C]]:&#45;1_">
<ellipse fill="none" stroke="black" cx="415" cy="-35.3553" rx="154.526" ry="35.2113"/>
<text text-anchor="middle" x="415" y="-45.1553" font-family="Times,serif" font-size="14.00">Node2</text>
<text text-anchor="start" x="313.743" y="-31.1553" font-family="Times,serif" font-size="14.00">input = {}</text>
<text text-anchor="middle" x="415" y="-17.1553" font-family="Times,serif" font-size="14.00">mapindex = {Node1,Node3,Node4}</text>
</a>
</g>
</g>
<!-- n1&#45;&gt;n2 -->
<g id="edge1" class="edge"><title>n1&#45;&gt;n2</title>
<path fill="none" stroke="black" d="M540.016,-109.08C520.743,-97.8688 498.932,-85.1807 478.986,-73.5775"/>
<polygon fill="black" stroke="black" points="480.671,-70.5089 470.268,-68.5059 477.151,-76.5596 480.671,-70.5089"/>
</g>
<!-- n3 -->
<g id="node3" class="node"><title>n3</title>
<g id="a_node3"><a xlink:title="[plotGraph.lua]:136_">
<ellipse fill="none" stroke="black" cx="233" cy="-325.789" rx="94.9112" ry="25.4118"/>
<text text-anchor="middle" x="233" y="-328.589" font-family="Times,serif" font-size="14.00">Node3</text>
<text text-anchor="middle" x="233" y="-314.589" font-family="Times,serif" font-size="14.00">module = nn.Identity</text>
</a>
</g>
</g>
<!-- n3&#45;&gt;n2 -->
<g id="edge2" class="edge"><title>n3&#45;&gt;n2</title>
<path fill="none" stroke="black" d="M248.517,-300.197C279.488,-251.115 349.307,-140.465 387.966,-79.1984"/>
<polygon fill="black" stroke="black" points="391.059,-80.8555 393.436,-70.5306 385.139,-77.12 391.059,-80.8555"/>
</g>
<!-- n4 -->
<g id="node4" class="node"><title>n4</title>
<g id="a_node4"><a xlink:title="[plotGraph.lua]:133_">
<ellipse fill="none" stroke="black" cx="486" cy="-238.877" rx="114.518" ry="25.4118"/>
<text text-anchor="middle" x="486" y="-241.677" font-family="Times,serif" font-size="14.00">Node4</text>
<text text-anchor="middle" x="486" y="-227.677" font-family="Times,serif" font-size="14.00">module = nn.LogSoftMax</text>
</a>
</g>
</g>
<!-- n4&#45;&gt;n1 -->
<g id="edge4" class="edge"><title>n4&#45;&gt;n1</title>
<path fill="none" stroke="black" d="M513.505,-213.952C524.266,-204.592 536.905,-193.598 548.976,-183.099"/>
<polygon fill="black" stroke="black" points="551.552,-185.497 556.801,-176.293 546.958,-180.215 551.552,-185.497"/>
</g>
<!-- n4&#45;&gt;n2 -->
<g id="edge3" class="edge"><title>n4&#45;&gt;n2</title>
<path fill="none" stroke="black" d="M459.827,-214.01C450.149,-203.713 440.069,-190.934 434,-177.421 420.385,-147.105 415.831,-109.711 414.576,-81.0413"/>
<polygon fill="black" stroke="black" points="418.069,-80.786 414.252,-70.9029 411.073,-81.0096 418.069,-80.786"/>
</g>
<!-- n5 -->
<g id="node5" class="node"><title>n5</title>
<g id="a_node5"><a xlink:title="[plotGraph.lua]:115_">
<ellipse fill="none" stroke="black" cx="718" cy="-1293.9" rx="94.9112" ry="25.4118"/>
<text text-anchor="middle" x="718" y="-1296.7" font-family="Times,serif" font-size="14.00">Node5</text>
<text text-anchor="middle" x="718" y="-1282.7" font-family="Times,serif" font-size="14.00">module = nn.Identity</text>
</a>
</g>
</g>
<!-- n5&#45;&gt;n1 -->
<g id="edge5" class="edge"><title>n5&#45;&gt;n1</title>
<path fill="none" stroke="black" d="M707.81,-1268.34C695.094,-1235.42 675,-1174.89 675,-1121.08 675,-1121.08 675,-1121.08 675,-324.789 675,-273.785 648.276,-221.034 625.719,-185.593"/>
<polygon fill="black" stroke="black" points="628.488,-183.431 620.093,-176.968 622.625,-187.256 628.488,-183.431"/>
</g>
<!-- n6 -->
<g id="node6" class="node"><title>n6</title>
<g id="a_node6"><a xlink:title="[plotGraph.lua]:92_">
<ellipse fill="none" stroke="black" cx="233" cy="-509.512" rx="130.692" ry="35.2113"/>
<text text-anchor="middle" x="233" y="-519.312" font-family="Times,serif" font-size="14.00">Node6</text>
<text text-anchor="start" x="148.655" y="-505.312" font-family="Times,serif" font-size="14.00">module = nn.CAddTable</text>
<text text-anchor="middle" x="233" y="-491.312" font-family="Times,serif" font-size="14.00">mapindex = {Node9,Node10}</text>
</a>
</g>
</g>
<!-- n6&#45;&gt;n3 -->
<g id="edge6" class="edge"><title>n6&#45;&gt;n3</title>
<path fill="none" stroke="black" d="M233,-473.903C233,-441.706 233,-393.973 233,-361.684"/>
<polygon fill="black" stroke="black" points="236.5,-361.371 233,-351.371 229.5,-361.371 236.5,-361.371"/>
</g>
<!-- n11 -->
<g id="node11" class="node"><title>n11</title>
<g id="a_node11"><a xlink:title="[plotGraph.lua]:132_">
<ellipse fill="none" stroke="black" cx="465" cy="-412.701" rx="140.752" ry="25.4118"/>
<text text-anchor="middle" x="465" y="-415.501" font-family="Times,serif" font-size="14.00">Node11</text>
<text text-anchor="middle" x="465" y="-401.501" font-family="Times,serif" font-size="14.00">module = nn.Dropout(0.000000)</text>
</a>
</g>
</g>
<!-- n6&#45;&gt;n11 -->
<g id="edge16" class="edge"><title>n6&#45;&gt;n11</title>
<path fill="none" stroke="black" d="M303.553,-479.679C334.348,-467.094 370.219,-452.435 400.317,-440.135"/>
<polygon fill="black" stroke="black" points="401.939,-443.253 409.872,-436.23 399.291,-436.773 401.939,-443.253"/>
</g>
<!-- n7 -->
<g id="node7" class="node"><title>n7</title>
<g id="a_node7"><a xlink:title="[plotGraph.lua]:133_">
<ellipse fill="none" stroke="black" cx="486" cy="-325.789" rx="139.734" ry="25.4118"/>
<text text-anchor="middle" x="486" y="-328.589" font-family="Times,serif" font-size="14.00">Node7</text>
<text text-anchor="middle" x="486" y="-314.589" font-family="Times,serif" font-size="14.00">module = nn.Linear(1 &#45;&gt; 10000)</text>
</a>
</g>
</g>
<!-- n7&#45;&gt;n4 -->
<g id="edge7" class="edge"><title>n7&#45;&gt;n4</title>
<path fill="none" stroke="black" d="M486,-300.229C486,-292.22 486,-283.171 486,-274.563"/>
<polygon fill="black" stroke="black" points="489.5,-274.382 486,-264.382 482.5,-274.382 489.5,-274.382"/>
</g>
<!-- n8 -->
<g id="node8" class="node"><title>n8</title>
<g id="a_node8"><a xlink:title="[[C]]:&#45;1_&#45;2">
<ellipse fill="none" stroke="black" cx="701" cy="-2018.89" rx="71.1496" ry="35.2113"/>
<text text-anchor="middle" x="701" y="-2028.69" font-family="Times,serif" font-size="14.00">Node8</text>
<text text-anchor="start" x="658.566" y="-2014.69" font-family="Times,serif" font-size="14.00">input = {}</text>
<text text-anchor="middle" x="701" y="-2000.69" font-family="Times,serif" font-size="14.00">selectindex = 2</text>
</a>
</g>
</g>
<!-- n8&#45;&gt;n5 -->
<g id="edge8" class="edge"><title>n8&#45;&gt;n5</title>
<path fill="none" stroke="black" d="M706.147,-1983.48C711.15,-1947 718,-1887.66 718,-1836.17 718,-1836.17 718,-1836.17 718,-1476.62 718,-1425.51 718,-1366.31 718,-1329.73"/>
<polygon fill="black" stroke="black" points="721.5,-1329.59 718,-1319.59 714.5,-1329.59 721.5,-1329.59"/>
</g>
<!-- n9 -->
<g id="node9" class="node"><title>n9</title>
<g id="a_node9"><a xlink:title="[plotGraph.lua]:120_">
<ellipse fill="none" stroke="black" cx="137" cy="-1748.26" rx="134.69" ry="25.4118"/>
<text text-anchor="middle" x="137" y="-1751.06" font-family="Times,serif" font-size="14.00">Node9</text>
<text text-anchor="middle" x="137" y="-1737.06" font-family="Times,serif" font-size="14.00">module = nngraph.JustElement</text>
</a>
</g>
</g>
<!-- n9&#45;&gt;n6 -->
<g id="edge9" class="edge"><title>n9&#45;&gt;n6</title>
<path fill="none" stroke="black" d="M82.38,-1724.97C64.8183,-1715.48 46.6534,-1702.83 34,-1686.8 1.93712,-1646.18 0,-1627.19 0,-1575.43 0,-1575.43 0,-1575.43 0,-721.933 0,-648.038 33.0535,-630.277 88,-580.867 105.036,-565.547 126.009,-552.83 146.656,-542.618"/>
<polygon fill="black" stroke="black" points="148.278,-545.722 155.788,-538.248 145.257,-539.407 148.278,-545.722"/>
</g>
<!-- n15 -->
<g id="node15" class="node"><title>n15</title>
<g id="a_node15"><a xlink:title="[plotGraph.lua]:94_">
<ellipse fill="none" stroke="black" cx="206" cy="-722.933" rx="130.692" ry="35.2113"/>
<text text-anchor="middle" x="206" y="-732.733" font-family="Times,serif" font-size="14.00">Node15</text>
<text text-anchor="start" x="121.655" y="-718.733" font-family="Times,serif" font-size="14.00">module = nn.CSubTable</text>
<text text-anchor="middle" x="206" y="-704.733" font-family="Times,serif" font-size="14.00">mapindex = {Node19,Node9}</text>
</a>
</g>
</g>
<!-- n9&#45;&gt;n15 -->
<g id="edge21" class="edge"><title>n9&#45;&gt;n15</title>
<path fill="none" stroke="black" d="M94.1602,-1723.84C80.2302,-1714.16 66.0446,-1701.68 57,-1686.8 30.9127,-1643.9 38,-1625.65 38,-1575.43 38,-1575.43 38,-1575.43 38,-915.555 38,-849.194 95.6737,-794.813 143.437,-761.156"/>
<polygon fill="black" stroke="black" points="145.665,-763.872 151.919,-755.32 141.697,-758.105 145.665,-763.872"/>
</g>
<!-- n33 -->
<g id="node33" class="node"><title>n33</title>
<g id="a_node33"><a xlink:title="[plotGraph.lua]:79_">
<ellipse fill="none" stroke="black" cx="186" cy="-1661.35" rx="120.136" ry="25.4118"/>
<text text-anchor="middle" x="186" y="-1664.15" font-family="Times,serif" font-size="14.00">Node33</text>
<text text-anchor="middle" x="186" y="-1650.15" font-family="Times,serif" font-size="14.00">module = nn.Linear(1 &#45;&gt; 3)</text>
</a>
</g>
</g>
<!-- n9&#45;&gt;n33 -->
<g id="edge41" class="edge"><title>n9&#45;&gt;n33</title>
<path fill="none" stroke="black" d="M151.173,-1722.7C156.049,-1714.25 161.592,-1704.64 166.8,-1695.62"/>
<polygon fill="black" stroke="black" points="169.892,-1697.26 171.859,-1686.85 163.829,-1693.76 169.892,-1697.26"/>
</g>
<!-- n10 -->
<g id="node10" class="node"><title>n10</title>
<g id="a_node10"><a xlink:title="[plotGraph.lua]:93_">
<ellipse fill="none" stroke="black" cx="233" cy="-616.222" rx="135.591" ry="35.2113"/>
<text text-anchor="middle" x="233" y="-626.022" font-family="Times,serif" font-size="14.00">Node10</text>
<text text-anchor="start" x="145.155" y="-612.022" font-family="Times,serif" font-size="14.00">module = nn.CMulTable</text>
<text text-anchor="middle" x="233" y="-598.022" font-family="Times,serif" font-size="14.00">mapindex = {Node14,Node15}</text>
</a>
</g>
</g>
<!-- n10&#45;&gt;n6 -->
<g id="edge10" class="edge"><title>n10&#45;&gt;n6</title>
<path fill="none" stroke="black" d="M233,-580.646C233,-572.515 233,-563.734 233,-555.228"/>
<polygon fill="black" stroke="black" points="236.5,-555.052 233,-545.052 229.5,-555.052 236.5,-555.052"/>
</g>
<!-- n11&#45;&gt;n7 -->
<g id="edge11" class="edge"><title>n11&#45;&gt;n7</title>
<path fill="none" stroke="black" d="M471.074,-387.141C473.077,-379.044 475.342,-369.884 477.492,-361.191"/>
<polygon fill="black" stroke="black" points="480.936,-361.842 479.94,-351.294 474.141,-360.161 480.936,-361.842"/>
</g>
<!-- n12 -->
<g id="node12" class="node"><title>n12</title>
<g id="a_node12"><a xlink:title="[[C]]:&#45;1_ split at [...heleceru/torch/install/share/lua/5.1/nngraph/gmodule.lua]:72&#45;mnode">
<ellipse fill="none" stroke="black" cx="499" cy="-2115.7" rx="81.6087" ry="25.4118"/>
<text text-anchor="middle" x="499" y="-2118.5" font-family="Times,serif" font-size="14.00">Node12</text>
<text text-anchor="middle" x="499" y="-2104.5" font-family="Times,serif" font-size="14.00">nSplitOutputs = 3</text>
</a>
</g>
</g>
<!-- n12&#45;&gt;n8 -->
<g id="edge12" class="edge"><title>n12&#45;&gt;n8</title>
<path fill="none" stroke="black" d="M542.831,-2094.13C571.557,-2080.65 609.482,-2062.85 640.995,-2048.06"/>
<polygon fill="black" stroke="black" points="642.559,-2051.19 650.125,-2043.77 639.585,-2044.85 642.559,-2051.19"/>
</g>
<!-- n17 -->
<g id="node17" class="node"><title>n17</title>
<g id="a_node17"><a xlink:title="[[C]]:&#45;1_&#45;3">
<ellipse fill="none" stroke="black" cx="272" cy="-2018.89" rx="71.1496" ry="35.2113"/>
<text text-anchor="middle" x="272" y="-2028.69" font-family="Times,serif" font-size="14.00">Node17</text>
<text text-anchor="start" x="229.566" y="-2014.69" font-family="Times,serif" font-size="14.00">input = {}</text>
<text text-anchor="middle" x="272" y="-2000.69" font-family="Times,serif" font-size="14.00">selectindex = 3</text>
</a>
</g>
</g>
<!-- n12&#45;&gt;n17 -->
<g id="edge22" class="edge"><title>n12&#45;&gt;n17</title>
<path fill="none" stroke="black" d="M451.413,-2094.83C417.759,-2080.77 372.272,-2061.77 335.521,-2046.42"/>
<polygon fill="black" stroke="black" points="336.469,-2043.03 325.893,-2042.4 333.771,-2049.49 336.469,-2043.03"/>
</g>
<!-- n36 -->
<g id="node36" class="node"><title>n36</title>
<g id="a_node36"><a xlink:title="[[C]]:&#45;1_&#45;1">
<ellipse fill="none" stroke="black" cx="499" cy="-2018.89" rx="71.1496" ry="35.2113"/>
<text text-anchor="middle" x="499" y="-2028.69" font-family="Times,serif" font-size="14.00">Node36</text>
<text text-anchor="start" x="456.566" y="-2014.69" font-family="Times,serif" font-size="14.00">input = {}</text>
<text text-anchor="middle" x="499" y="-2000.69" font-family="Times,serif" font-size="14.00">selectindex = 1</text>
</a>
</g>
</g>
<!-- n12&#45;&gt;n36 -->
<g id="edge44" class="edge"><title>n12&#45;&gt;n36</title>
<path fill="none" stroke="black" d="M499,-2089.79C499,-2081.99 499,-2073.12 499,-2064.38"/>
<polygon fill="black" stroke="black" points="502.5,-2064.26 499,-2054.26 495.5,-2064.26 502.5,-2064.26"/>
</g>
<!-- n13 -->
<g id="node13" class="node"><title>n13</title>
<g id="a_node13"><a xlink:title="[plotGraph.lua]:116_">
<ellipse fill="none" stroke="black" cx="249" cy="-1922.08" rx="94.9112" ry="25.4118"/>
<text text-anchor="middle" x="249" y="-1924.88" font-family="Times,serif" font-size="14.00">Node13</text>
<text text-anchor="middle" x="249" y="-1910.88" font-family="Times,serif" font-size="14.00">module = nn.Identity</text>
</a>
</g>
</g>
<!-- n13&#45;&gt;n9 -->
<g id="edge13" class="edge"><title>n13&#45;&gt;n9</title>
<path fill="none" stroke="black" d="M233.191,-1896.83C213.651,-1866.85 180.315,-1815.71 158.472,-1782.2"/>
<polygon fill="black" stroke="black" points="161.303,-1780.13 152.91,-1773.67 155.438,-1783.95 161.303,-1780.13"/>
</g>
<!-- n14 -->
<g id="node14" class="node"><title>n14</title>
<g id="a_node14"><a xlink:title="[plotGraph.lua]:86_">
<ellipse fill="none" stroke="black" cx="457" cy="-1023.27" rx="97.4405" ry="25.4118"/>
<text text-anchor="middle" x="457" y="-1026.07" font-family="Times,serif" font-size="14.00">Node14</text>
<text text-anchor="middle" x="457" y="-1012.07" font-family="Times,serif" font-size="14.00">module = nn.Sigmoid</text>
</a>
</g>
</g>
<!-- n14&#45;&gt;n10 -->
<g id="edge14" class="edge"><title>n14&#45;&gt;n10</title>
<path fill="none" stroke="black" d="M454.583,-997.724C447.632,-938.456 422.886,-785.21 346,-687.578 335.363,-674.07 321.364,-662.471 306.857,-652.813"/>
<polygon fill="black" stroke="black" points="308.593,-649.769 298.278,-647.351 304.833,-655.674 308.593,-649.769"/>
</g>
<!-- n15&#45;&gt;n10 -->
<g id="edge15" class="edge"><title>n15&#45;&gt;n10</title>
<path fill="none" stroke="black" d="M214.841,-687.647C217.009,-679.24 219.359,-670.124 221.627,-661.327"/>
<polygon fill="black" stroke="black" points="225.032,-662.143 224.139,-651.586 218.253,-660.395 225.032,-662.143"/>
</g>
<!-- n16 -->
<g id="node16" class="node"><title>n16</title>
<g id="a_node16"><a xlink:title="[[C]]:&#45;1_">
<ellipse fill="none" stroke="black" cx="499" cy="-2202.62" rx="51.8999" ry="25.4118"/>
<text text-anchor="middle" x="499" y="-2205.42" font-family="Times,serif" font-size="14.00">Node16</text>
<text text-anchor="middle" x="499" y="-2191.42" font-family="Times,serif" font-size="14.00">input = {}</text>
</a>
</g>
</g>
<!-- n16&#45;&gt;n12 -->
<g id="edge17" class="edge"><title>n16&#45;&gt;n12</title>
<path fill="none" stroke="black" d="M499,-2177.06C499,-2169.05 499,-2160 499,-2151.39"/>
<polygon fill="black" stroke="black" points="502.5,-2151.21 499,-2141.21 495.5,-2151.21 502.5,-2151.21"/>
</g>
<!-- n17&#45;&gt;n13 -->
<g id="edge18" class="edge"><title>n17&#45;&gt;n13</title>
<path fill="none" stroke="black" d="M263.696,-1983.66C261.647,-1975.22 259.451,-1966.16 257.398,-1957.7"/>
<polygon fill="black" stroke="black" points="260.742,-1956.64 254.983,-1947.74 253.939,-1958.29 260.742,-1956.64"/>
</g>
<!-- n18 -->
<g id="node18" class="node"><title>n18</title>
<g id="a_node18"><a xlink:title="[plotGraph.lua]:86_">
<ellipse fill="none" stroke="black" cx="457" cy="-1120.08" rx="109.892" ry="25.4118"/>
<text text-anchor="middle" x="457" y="-1122.88" font-family="Times,serif" font-size="14.00">Node18</text>
<text text-anchor="middle" x="457" y="-1108.88" font-family="Times,serif" font-size="14.00">module = nn.SelectTable</text>
</a>
</g>
</g>
<!-- n18&#45;&gt;n14 -->
<g id="edge19" class="edge"><title>n18&#45;&gt;n14</title>
<path fill="none" stroke="black" d="M457,-1094.17C457,-1083.5 457,-1070.85 457,-1059.26"/>
<polygon fill="black" stroke="black" points="460.5,-1059.01 457,-1049.01 453.5,-1059.01 460.5,-1059.01"/>
</g>
<!-- n19 -->
<g id="node19" class="node"><title>n19</title>
<g id="a_node19"><a xlink:title="[plotGraph.lua]:87_">
<ellipse fill="none" stroke="black" cx="206" cy="-819.744" rx="83.6272" ry="25.4118"/>
<text text-anchor="middle" x="206" y="-822.544" font-family="Times,serif" font-size="14.00">Node19</text>
<text text-anchor="middle" x="206" y="-808.544" font-family="Times,serif" font-size="14.00">module = nn.Tanh</text>
</a>
</g>
</g>
<!-- n19&#45;&gt;n15 -->
<g id="edge20" class="edge"><title>n19&#45;&gt;n15</title>
<path fill="none" stroke="black" d="M206,-793.834C206,-786.026 206,-777.158 206,-768.423"/>
<polygon fill="black" stroke="black" points="209.5,-768.3 206,-758.3 202.5,-768.3 209.5,-768.3"/>
</g>
<!-- n20 -->
<g id="node20" class="node"><title>n20</title>
<g id="a_node20"><a xlink:title="[plotGraph.lua]:84_">
<ellipse fill="none" stroke="black" cx="391" cy="-1293.9" rx="104.429" ry="25.4118"/>
<text text-anchor="middle" x="391" y="-1296.7" font-family="Times,serif" font-size="14.00">Node20</text>
<text text-anchor="middle" x="391" y="-1282.7" font-family="Times,serif" font-size="14.00">module = nn.SplitTable</text>
</a>
</g>
</g>
<!-- n20&#45;&gt;n18 -->
<g id="edge23" class="edge"><title>n20&#45;&gt;n18</title>
<path fill="none" stroke="black" d="M400.456,-1268.28C411.876,-1238.55 431.143,-1188.39 443.966,-1155.01"/>
<polygon fill="black" stroke="black" points="447.243,-1156.24 447.561,-1145.65 440.708,-1153.73 447.243,-1156.24"/>
</g>
<!-- n32 -->
<g id="node32" class="node"><title>n32</title>
<g id="a_node32"><a xlink:title="[plotGraph.lua]:85_">
<ellipse fill="none" stroke="black" cx="267" cy="-1206.99" rx="109.892" ry="25.4118"/>
<text text-anchor="middle" x="267" y="-1209.79" font-family="Times,serif" font-size="14.00">Node32</text>
<text text-anchor="middle" x="267" y="-1195.79" font-family="Times,serif" font-size="14.00">module = nn.SelectTable</text>
</a>
</g>
</g>
<!-- n20&#45;&gt;n32 -->
<g id="edge40" class="edge"><title>n20&#45;&gt;n32</title>
<path fill="none" stroke="black" d="M357.116,-1269.7C342.475,-1259.67 325.179,-1247.83 309.674,-1237.21"/>
<polygon fill="black" stroke="black" points="311.502,-1234.22 301.273,-1231.46 307.547,-1240 311.502,-1234.22"/>
</g>
<!-- n21 -->
<g id="node21" class="node"><title>n21</title>
<g id="a_node21"><a xlink:title="[plotGraph.lua]:87_">
<ellipse fill="none" stroke="black" cx="206" cy="-916.555" rx="135.591" ry="35.2113"/>
<text text-anchor="middle" x="206" y="-926.355" font-family="Times,serif" font-size="14.00">Node21</text>
<text text-anchor="start" x="118.155" y="-912.355" font-family="Times,serif" font-size="14.00">module = nn.CAddTable</text>
<text text-anchor="middle" x="206" y="-898.355" font-family="Times,serif" font-size="14.00">mapindex = {Node23,Node24}</text>
</a>
</g>
</g>
<!-- n21&#45;&gt;n19 -->
<g id="edge24" class="edge"><title>n21&#45;&gt;n19</title>
<path fill="none" stroke="black" d="M206,-881.058C206,-872.719 206,-863.803 206,-855.454"/>
<polygon fill="black" stroke="black" points="209.5,-855.268 206,-845.268 202.5,-855.268 209.5,-855.268"/>
</g>
<!-- n22 -->
<g id="node22" class="node"><title>n22</title>
<g id="a_node22"><a xlink:title="[plotGraph.lua]:84_">
<ellipse fill="none" stroke="black" cx="391" cy="-1380.81" rx="118.787" ry="25.4118"/>
<text text-anchor="middle" x="391" y="-1383.61" font-family="Times,serif" font-size="14.00">Node22</text>
<text text-anchor="middle" x="391" y="-1369.61" font-family="Times,serif" font-size="14.00">module = nn.Reshape(2x1)</text>
</a>
</g>
</g>
<!-- n22&#45;&gt;n20 -->
<g id="edge25" class="edge"><title>n22&#45;&gt;n20</title>
<path fill="none" stroke="black" d="M391,-1355.25C391,-1347.24 391,-1338.19 391,-1329.59"/>
<polygon fill="black" stroke="black" points="394.5,-1329.41 391,-1319.41 387.5,-1329.41 394.5,-1329.41"/>
</g>
<!-- n23 -->
<g id="node23" class="node"><title>n23</title>
<g id="a_node23"><a xlink:title="[plotGraph.lua]:88_">
<ellipse fill="none" stroke="black" cx="596" cy="-1477.62" rx="94.2992" ry="25.4118"/>
<text text-anchor="middle" x="596" y="-1480.42" font-family="Times,serif" font-size="14.00">Node23</text>
<text text-anchor="middle" x="596" y="-1466.42" font-family="Times,serif" font-size="14.00">module = nn.Narrow</text>
</a>
</g>
</g>
<!-- n23&#45;&gt;n21 -->
<g id="edge26" class="edge"><title>n23&#45;&gt;n21</title>
<path fill="none" stroke="black" d="M595.778,-1451.93C595.483,-1416.98 595,-1351.06 595,-1294.9 595,-1294.9 595,-1294.9 595,-1119.08 595,-1059.07 606.369,-1029.38 563,-987.911 531.567,-957.853 430.668,-939.775 344.123,-929.487"/>
<polygon fill="black" stroke="black" points="344.523,-926.009 334.186,-928.331 343.715,-932.963 344.523,-926.009"/>
</g>
<!-- n24 -->
<g id="node24" class="node"><title>n24</title>
<g id="a_node24"><a xlink:title="[plotGraph.lua]:89_">
<ellipse fill="none" stroke="black" cx="206" cy="-1023.27" rx="135.591" ry="35.2113"/>
<text text-anchor="middle" x="206" y="-1033.07" font-family="Times,serif" font-size="14.00">Node24</text>
<text text-anchor="start" x="118.155" y="-1019.07" font-family="Times,serif" font-size="14.00">module = nn.CMulTable</text>
<text text-anchor="middle" x="206" y="-1005.07" font-family="Times,serif" font-size="14.00">mapindex = {Node27,Node28}</text>
</a>
</g>
</g>
<!-- n24&#45;&gt;n21 -->
<g id="edge27" class="edge"><title>n24&#45;&gt;n21</title>
<path fill="none" stroke="black" d="M206,-987.69C206,-979.558 206,-970.778 206,-962.272"/>
<polygon fill="black" stroke="black" points="209.5,-962.096 206,-952.096 202.5,-962.096 209.5,-962.096"/>
</g>
<!-- n25 -->
<g id="node25" class="node"><title>n25</title>
<g id="a_node25"><a xlink:title="[plotGraph.lua]:80_">
<ellipse fill="none" stroke="black" cx="348" cy="-1477.62" rx="135.591" ry="35.2113"/>
<text text-anchor="middle" x="348" y="-1487.42" font-family="Times,serif" font-size="14.00">Node25</text>
<text text-anchor="start" x="260.155" y="-1473.42" font-family="Times,serif" font-size="14.00">module = nn.CAddTable</text>
<text text-anchor="middle" x="348" y="-1459.42" font-family="Times,serif" font-size="14.00">mapindex = {Node29,Node30}</text>
</a>
</g>
</g>
<!-- n25&#45;&gt;n22 -->
<g id="edge28" class="edge"><title>n25&#45;&gt;n22</title>
<path fill="none" stroke="black" d="M363.524,-1442.39C367.517,-1433.59 371.808,-1424.13 375.785,-1415.36"/>
<polygon fill="black" stroke="black" points="379.004,-1416.74 379.947,-1406.18 372.629,-1413.84 379.004,-1416.74"/>
</g>
<!-- n26 -->
<g id="node26" class="node"><title>n26</title>
<g id="a_node26"><a xlink:title="[plotGraph.lua]:78_">
<ellipse fill="none" stroke="black" cx="499" cy="-1661.35" rx="120.136" ry="25.4118"/>
<text text-anchor="middle" x="499" y="-1664.15" font-family="Times,serif" font-size="14.00">Node26</text>
<text text-anchor="middle" x="499" y="-1650.15" font-family="Times,serif" font-size="14.00">module = nn.Linear(1 &#45;&gt; 3)</text>
</a>
</g>
</g>
<!-- n26&#45;&gt;n23 -->
<g id="edge29" class="edge"><title>n26&#45;&gt;n23</title>
<path fill="none" stroke="black" d="M546.77,-1637.82C561.836,-1628.28 576.907,-1615.67 586,-1599.89 601.113,-1573.67 602.443,-1538.82 600.683,-1513.21"/>
<polygon fill="black" stroke="black" points="604.165,-1512.85 599.808,-1503.2 597.192,-1513.46 604.165,-1512.85"/>
</g>
<!-- n29 -->
<g id="node29" class="node"><title>n29</title>
<g id="a_node29"><a xlink:title="[plotGraph.lua]:81_">
<ellipse fill="none" stroke="black" cx="483" cy="-1574.43" rx="94.2992" ry="25.4118"/>
<text text-anchor="middle" x="483" y="-1577.23" font-family="Times,serif" font-size="14.00">Node29</text>
<text text-anchor="middle" x="483" y="-1563.23" font-family="Times,serif" font-size="14.00">module = nn.Narrow</text>
</a>
</g>
</g>
<!-- n26&#45;&gt;n29 -->
<g id="edge37" class="edge"><title>n26&#45;&gt;n29</title>
<path fill="none" stroke="black" d="M494.372,-1635.79C492.846,-1627.69 491.12,-1618.53 489.482,-1609.84"/>
<polygon fill="black" stroke="black" points="492.909,-1609.12 487.617,-1599.94 486.03,-1610.41 492.909,-1609.12"/>
</g>
<!-- n27 -->
<g id="node27" class="node"><title>n27</title>
<g id="a_node27"><a xlink:title="[plotGraph.lua]:85_">
<ellipse fill="none" stroke="black" cx="232" cy="-1120.08" rx="97.4405" ry="25.4118"/>
<text text-anchor="middle" x="232" y="-1122.88" font-family="Times,serif" font-size="14.00">Node27</text>
<text text-anchor="middle" x="232" y="-1108.88" font-family="Times,serif" font-size="14.00">module = nn.Sigmoid</text>
</a>
</g>
</g>
<!-- n27&#45;&gt;n24 -->
<g id="edge30" class="edge"><title>n27&#45;&gt;n24</title>
<path fill="none" stroke="black" d="M225.304,-1094.66C223.094,-1086.6 220.564,-1077.37 218.078,-1068.31"/>
<polygon fill="black" stroke="black" points="221.437,-1067.32 215.416,-1058.6 214.686,-1069.17 221.437,-1067.32"/>
</g>
<!-- n28 -->
<g id="node28" class="node"><title>n28</title>
<g id="a_node28"><a xlink:title="[plotGraph.lua]:90_">
<ellipse fill="none" stroke="black" cx="160" cy="-1380.81" rx="94.2992" ry="25.4118"/>
<text text-anchor="middle" x="160" y="-1383.61" font-family="Times,serif" font-size="14.00">Node28</text>
<text text-anchor="middle" x="160" y="-1369.61" font-family="Times,serif" font-size="14.00">module = nn.Narrow</text>
</a>
</g>
</g>
<!-- n28&#45;&gt;n24 -->
<g id="edge31" class="edge"><title>n28&#45;&gt;n24</title>
<path fill="none" stroke="black" d="M148.801,-1355.22C127.264,-1304.15 85.6248,-1183.9 126,-1094.62 131.292,-1082.92 139.599,-1072.39 148.896,-1063.26"/>
<polygon fill="black" stroke="black" points="151.537,-1065.58 156.526,-1056.24 146.797,-1060.43 151.537,-1065.58"/>
</g>
<!-- n29&#45;&gt;n25 -->
<g id="edge32" class="edge"><title>n29&#45;&gt;n25</title>
<path fill="none" stroke="black" d="M450.32,-1550.48C435.967,-1540.4 418.721,-1528.29 402.513,-1516.91"/>
<polygon fill="black" stroke="black" points="404.348,-1513.92 394.153,-1511.04 400.324,-1519.65 404.348,-1513.92"/>
</g>
<!-- n30 -->
<g id="node30" class="node"><title>n30</title>
<g id="a_node30"><a xlink:title="[plotGraph.lua]:82_">
<ellipse fill="none" stroke="black" cx="277" cy="-1574.43" rx="94.2992" ry="25.4118"/>
<text text-anchor="middle" x="277" y="-1577.23" font-family="Times,serif" font-size="14.00">Node30</text>
<text text-anchor="middle" x="277" y="-1563.23" font-family="Times,serif" font-size="14.00">module = nn.Narrow</text>
</a>
</g>
</g>
<!-- n30&#45;&gt;n25 -->
<g id="edge33" class="edge"><title>n30&#45;&gt;n25</title>
<path fill="none" stroke="black" d="M295.284,-1549.02C301.768,-1540.36 309.264,-1530.35 316.53,-1520.65"/>
<polygon fill="black" stroke="black" points="319.361,-1522.71 322.554,-1512.6 313.758,-1518.51 319.361,-1522.71"/>
</g>
<!-- n31 -->
<g id="node31" class="node"><title>n31</title>
<g id="a_node31"><a xlink:title="[plotGraph.lua]:125_">
<ellipse fill="none" stroke="black" cx="499" cy="-1748.26" rx="140.752" ry="25.4118"/>
<text text-anchor="middle" x="499" y="-1751.06" font-family="Times,serif" font-size="14.00">Node31</text>
<text text-anchor="middle" x="499" y="-1737.06" font-family="Times,serif" font-size="14.00">module = nn.Dropout(0.000000)</text>
</a>
</g>
</g>
<!-- n31&#45;&gt;n26 -->
<g id="edge34" class="edge"><title>n31&#45;&gt;n26</title>
<path fill="none" stroke="black" d="M499,-1722.7C499,-1714.69 499,-1705.64 499,-1697.03"/>
<polygon fill="black" stroke="black" points="502.5,-1696.85 499,-1686.85 495.5,-1696.85 502.5,-1696.85"/>
</g>
<!-- n32&#45;&gt;n27 -->
<g id="edge35" class="edge"><title>n32&#45;&gt;n27</title>
<path fill="none" stroke="black" d="M256.877,-1181.43C253.466,-1173.16 249.599,-1163.77 245.947,-1154.91"/>
<polygon fill="black" stroke="black" points="249.148,-1153.49 242.101,-1145.58 242.676,-1156.16 249.148,-1153.49"/>
</g>
<!-- n33&#45;&gt;n28 -->
<g id="edge36" class="edge"><title>n33&#45;&gt;n28</title>
<path fill="none" stroke="black" d="M180.356,-1635.76C178.045,-1624.83 175.554,-1611.77 174,-1599.89 165.588,-1535.56 162.167,-1459.86 160.823,-1416.69"/>
<polygon fill="black" stroke="black" points="164.314,-1416.34 160.524,-1406.44 157.317,-1416.54 164.314,-1416.34"/>
</g>
<!-- n33&#45;&gt;n30 -->
<g id="edge38" class="edge"><title>n33&#45;&gt;n30</title>
<path fill="none" stroke="black" d="M211.834,-1636.24C221.897,-1626.85 233.55,-1615.98 244.195,-1606.05"/>
<polygon fill="black" stroke="black" points="246.807,-1608.39 251.731,-1599.01 242.032,-1603.28 246.807,-1608.39"/>
</g>
<!-- n34 -->
<g id="node34" class="node"><title>n34</title>
<g id="a_node34"><a xlink:title="[plotGraph.lua]:118_">
<ellipse fill="none" stroke="black" cx="499" cy="-1835.17" rx="116.608" ry="25.4118"/>
<text text-anchor="middle" x="499" y="-1837.97" font-family="Times,serif" font-size="14.00">Node34</text>
<text text-anchor="middle" x="499" y="-1823.97" font-family="Times,serif" font-size="14.00">module = nn.LookupTable</text>
</a>
</g>
</g>
<!-- n34&#45;&gt;n31 -->
<g id="edge39" class="edge"><title>n34&#45;&gt;n31</title>
<path fill="none" stroke="black" d="M499,-1809.61C499,-1801.6 499,-1792.55 499,-1783.94"/>
<polygon fill="black" stroke="black" points="502.5,-1783.76 499,-1773.76 495.5,-1783.76 502.5,-1783.76"/>
</g>
<!-- n35 -->
<g id="node35" class="node"><title>n35</title>
<g id="a_node35"><a xlink:title="[plotGraph.lua]:114_">
<ellipse fill="none" stroke="black" cx="499" cy="-1922.08" rx="94.9112" ry="25.4118"/>
<text text-anchor="middle" x="499" y="-1924.88" font-family="Times,serif" font-size="14.00">Node35</text>
<text text-anchor="middle" x="499" y="-1910.88" font-family="Times,serif" font-size="14.00">module = nn.Identity</text>
</a>
</g>
</g>
<!-- n35&#45;&gt;n34 -->
<g id="edge42" class="edge"><title>n35&#45;&gt;n34</title>
<path fill="none" stroke="black" d="M499,-1896.52C499,-1888.51 499,-1879.46 499,-1870.86"/>
<polygon fill="black" stroke="black" points="502.5,-1870.67 499,-1860.67 495.5,-1870.67 502.5,-1870.67"/>
</g>
<!-- n36&#45;&gt;n35 -->
<g id="edge43" class="edge"><title>n36&#45;&gt;n35</title>
<path fill="none" stroke="black" d="M499,-1983.4C499,-1975.06 499,-1966.14 499,-1957.79"/>
<polygon fill="black" stroke="black" points="502.5,-1957.61 499,-1947.61 495.5,-1957.61 502.5,-1957.61"/>
</g>
</g>
</svg>
